<?xml version="1.0" encoding="utf-8"?>
<!-- Generator: Adobe Illustrator 17.1.0, SVG Export Plug-In . SVG Version: 6.00 Build 0)  -->
<!DOCTYPE svg PUBLIC "-//W3C//DTD SVG 1.1//EN" "http://www.w3.org/Graphics/SVG/1.1/DTD/svg11.dtd">
<svg version="1.1" xmlns="http://www.w3.org/2000/svg" xmlns:xlink="http://www.w3.org/1999/xlink" x="0px" y="0px"
	 viewBox="0 0 64 64" enable-background="new 0 0 64 64" xml:space="preserve">
<g id="vector_paths">
</g>
<g id="original_text_characters">
	<g>
		<path d="M64,49.1c-0.1-1.2-0.5-2.5-1.2-3.7l-6-10.5c-0.5-0.9-0.8-1.8-0.8-2.7c0-0.9,0.1-1.6,0.4-2.3c0.3-0.7,0.7-1.3,1.2-1.8
			c0.5-0.5,0.9-0.9,1.4-1.1l-2.8-4.8c-0.4,0.2-1,0.4-1.6,0.6c-0.7,0.2-1.4,0.2-2.1,0.2c-0.7-0.1-1.4-0.3-2.2-0.6
			c-0.7-0.4-1.3-1-1.8-1.8L42.2,9.6c-0.3-0.4-0.5-0.8-0.8-1.2l1.8-3.2l-7.1-4.1c-0.6-0.4-1.4-0.6-2.4-0.8c-1-0.1-2-0.1-3,0.1
			c-1,0.2-2.1,0.7-3.1,1.3c-1,0.7-1.9,1.6-2.6,2.9l-6,10.5c-0.5,0.9-1.2,1.6-1.9,2c-0.7,0.4-1.5,0.7-2.2,0.8c-0.7,0.1-1.5,0-2.2-0.1
			c-0.7-0.2-1.2-0.4-1.6-0.6l-2.8,4.8c0.4,0.2,0.9,0.6,1.4,1.1c0.5,0.5,0.9,1.1,1.2,1.7c0.3,0.7,0.5,1.4,0.5,2.2
			c0,0.8-0.2,1.6-0.7,2.5L4.3,40.5c-0.3,0.4-0.5,0.9-0.6,1.3H0v8.2c0,0.7,0.2,1.6,0.5,2.5c0.4,0.9,0.9,1.8,1.6,2.6
			c0.7,0.8,1.6,1.5,2.7,2c1.1,0.6,2.4,0.8,3.8,0.8h12.1c1.1,0,2,0.2,2.7,0.6c0.7,0.4,1.3,0.9,1.8,1.5c0.4,0.6,0.8,1.2,1,1.9
			c0.2,0.7,0.3,1.3,0.3,1.7h5.6c0-0.5,0.1-1,0.3-1.7c0.2-0.7,0.5-1.3,0.9-1.9c0.4-0.6,1-1.1,1.6-1.5c0.7-0.4,1.5-0.6,2.5-0.6h12.5
			c0.5,0,1,0,1.4-0.1l1.8,3.2l7.1-4.1c0.6-0.4,1.3-0.9,1.9-1.7c0.6-0.8,1.1-1.7,1.4-2.7C63.9,51.4,64,50.3,64,49.1z M46.8,48.7H36.5
			c-1.4,0-2.5,0.2-3.4,0.7c-0.9,0.5-1.6,1.1-2.1,1.7c-0.5,0.7-0.9,1.4-1.2,2.1c-0.2,0.7-0.4,1.3-0.4,1.8h-0.2c0-0.5-0.2-1.1-0.4-1.8
			c-0.2-0.7-0.6-1.4-1.1-2.1c-0.5-0.7-1.3-1.2-2.3-1.7c-1-0.5-2.2-0.7-3.8-0.7h-6L14.5,48c-0.7-0.4-1.1-0.8-1.4-1.3
			c-0.2-0.5-0.4-1-0.4-1.5c0-0.5,0.1-1,0.3-1.5c0.2-0.5,0.5-1,0.7-1.4l5.1-8.9c0.7-1.2,1-2.3,1-3.3c0-1-0.1-1.9-0.4-2.7
			c-0.3-0.8-0.7-1.5-1.2-2c-0.5-0.6-1-1-1.3-1.3l0.1-0.2c0.4,0.2,1,0.4,1.8,0.6c0.7,0.2,1.5,0.2,2.4,0.1c0.8-0.1,1.7-0.5,2.6-1.1
			c0.9-0.6,1.8-1.6,2.6-2.9l3-5.2l1.1-0.7c0.7-0.4,1.3-0.6,1.8-0.5c0.5,0,1,0.2,1.5,0.4c0.4,0.3,0.8,0.6,1.2,1.1
			c0.3,0.5,0.6,0.9,0.9,1.3l5.1,8.9c0.7,1.2,1.5,2,2.3,2.6c0.9,0.5,1.7,0.8,2.6,1c0.8,0.1,1.6,0.1,2.4,0c0.7-0.2,1.3-0.3,1.8-0.5
			l0.1,0.2c-0.4,0.3-0.8,0.7-1.4,1.2c-0.5,0.5-0.9,1.2-1.2,2c-0.3,0.8-0.4,1.7-0.4,2.8c0.1,1.1,0.5,2.3,1.3,3.7l3,5.2v1.3
			c0,0.8-0.2,1.4-0.4,1.8c-0.3,0.4-0.7,0.8-1.1,1.1s-1,0.4-1.5,0.5C47.8,48.7,47.3,48.7,46.8,48.7z"/>
		<path d="M43.9,44.5c0,0,0-0.1-0.1-0.1c-0.2-0.4-0.4-0.9-0.5-1.4c-0.1-0.5-0.3-1-0.4-1.5c-0.1-0.5-0.2-0.9-0.3-1.2
			c-0.1-0.5-0.3-1.1-0.5-1.6c0,0,0-0.1,0-0.1c-0.2-0.5-0.5-1-0.8-1.5c-0.2-0.2-0.3-0.4-0.5-0.5c0,0,0,0,0,0
			c-0.2-0.2-0.4-0.3-0.6-0.5c-0.5-0.3-1-0.5-1.6-0.5l0-0.1c1.2-0.7,2-1.6,2.3-2.7c0.4-1.1,0.5-2.2,0.3-3.6c-0.1-0.9-0.4-1.6-0.9-2.3
			c-0.1-0.2-0.2-0.3-0.3-0.5c-0.4-0.5-0.8-0.9-1.3-1.2c-0.7-0.5-1.4-0.8-2.3-1c-0.9-0.2-1.8-0.2-2.8,0l-12.1,2l1.7,9.9l2.1,12.5
			l4.9-0.8l-1.5-8.8l4.9-0.8c0.9-0.2,1.7-0.1,2.3,0.1c0.1,0,0.2,0.1,0.3,0.1c0,0,0,0,0,0c0.1,0,0.2,0.1,0.3,0.2
			c0.6,0.5,1.1,1.3,1.5,2.4c0.3,0.9,0.5,1.8,0.8,2.8c0.2,0.9,0.5,1.7,0.8,2.3c0,0.1,0.1,0.1,0.1,0.2l4.9-0.8
			c-0.1-0.1-0.2-0.2-0.3-0.4C44.1,44.9,44,44.8,43.9,44.5z M28.1,35.6L27,29.3l5.4-0.9c1.1-0.2,2-0.1,2.7,0.3
			c0.2,0.1,0.3,0.2,0.4,0.4c0.4,0.4,0.7,1.1,0.8,1.9c0.2,1.1,0,2-0.4,2.6c-0.5,0.6-1.3,1-2.4,1.2L28.1,35.6z"/>
	</g>
</g>
</svg>
